<?xml version="1.0" encoding="UTF-8"?> <svg xmlns="http://www.w3.org/2000/svg" width="41" height="41" viewBox="0 0 41 41" fill="none"><path fill-rule="evenodd" clip-rule="evenodd" d="M20.5 38.4375C25.2573 38.4375 29.8198 36.5477 33.1837 33.1837C36.5477 29.8198 38.4375 25.2573 38.4375 20.5C38.4375 15.7427 36.5477 11.1802 33.1837 7.81627C29.8198 4.45234 25.2573 2.5625 20.5 2.5625C15.7427 2.5625 11.1802 4.45234 7.81627 7.81627C4.45234 11.1802 2.5625 15.7427 2.5625 20.5C2.5625 25.2573 4.45234 29.8198 7.81627 33.1837C11.1802 36.5477 15.7427 38.4375 20.5 38.4375ZM19.2188 7.6875V10.25H21.7812V7.6875H19.2188ZM20.5 16.6562C21.1842 16.6562 21.8274 16.8356 22.3834 17.1482L29.9069 10.5678L31.5931 12.4947L24.0721 19.0778C24.3019 19.6543 24.3886 20.2778 24.3249 20.8951C24.2613 21.5124 24.0491 22.105 23.7065 22.6225C23.364 23.1399 22.9013 23.5668 22.3579 23.8665C21.8145 24.1662 21.2066 24.3299 20.5862 24.3436C19.9658 24.3572 19.3513 24.2205 18.7953 23.9451C18.2392 23.6696 17.7581 23.2636 17.3931 22.7618C17.028 22.26 16.7899 21.6772 16.6991 21.0633C16.6083 20.4495 16.6674 19.8227 16.8715 19.2367L13.2917 16.3744L14.8907 14.3756L18.4679 17.2354C19.0573 16.8689 19.7543 16.6562 20.5 16.6562ZM7.68494 21.7812H10.2474V19.2188H7.6875L7.68494 21.7812ZM30.7474 21.7812H33.3099V19.2188H30.7474V21.7812ZM19.2188 30.75V33.3125H21.7812V30.75H19.2188Z" fill="url(#paint0_linear_68_1564)"></path><defs><linearGradient id="paint0_linear_68_1564" x1="0.779741" y1="20.4398" x2="33.9941" y2="20.4398" gradientUnits="userSpaceOnUse"><stop stop-color="#4C3AFF"></stop><stop offset="1" stop-color="#49BCFF"></stop></linearGradient></defs></svg> 