<?xml version="1.0" encoding="UTF-8"?> <svg xmlns="http://www.w3.org/2000/svg" width="45" height="49" viewBox="0 0 45 49" fill="none"><path fill-rule="evenodd" clip-rule="evenodd" d="M19.8008 13.7028H17.4443C17.2731 13.7012 17.1175 13.6023 17.0406 13.4491C16.962 13.2944 16.9761 13.1094 17.0751 12.9674L21.7596 6.38442C21.9309 6.14356 22.2058 6 22.4996 6C22.7933 6 23.0683 6.14356 23.2395 6.38442L27.924 12.9756C28.023 13.1176 28.0371 13.3026 27.9586 13.4573C27.8816 13.612 27.726 13.7093 27.5548 13.7109H25.1983V20.7631C24.2039 21.3741 23.2958 22.119 22.4994 22.9756C21.7029 22.1174 20.7948 21.3725 19.8004 20.7631L19.8008 13.7028ZM33.4152 19.6973H31.7499C28.5828 19.7005 25.546 20.9814 23.3059 23.2544C21.0657 25.529 19.8057 28.6124 19.801 31.8297V41.4529C19.801 41.756 20.043 42 20.3399 42H24.66C24.9569 42 25.1988 41.7559 25.1988 41.4529V31.8297C25.202 30.0656 25.8932 28.3763 27.1201 27.1288C28.3487 25.8814 30.0139 25.1796 31.75 25.1764H33.4152V27.5691C33.4121 27.743 33.5079 27.9009 33.6603 27.9775C33.8127 28.0588 33.9965 28.0445 34.1347 27.9408L40.6214 23.1843C40.8602 23.0105 41 22.7313 41 22.4346C41 22.1379 40.8602 21.8588 40.6214 21.685L34.1347 16.9285C33.9981 16.8248 33.8142 16.8089 33.6619 16.887C33.5079 16.9668 33.4136 17.1263 33.4152 17.3002L33.4152 19.6973ZM11.5848 19.6973V17.2999C11.5864 17.126 11.4921 16.9665 11.3381 16.8867C11.1858 16.8086 11.002 16.8245 10.8653 16.9282L4.37861 21.6847C4.13982 21.8585 4 22.1377 4 22.4344C4 22.731 4.13982 23.0102 4.37861 23.184L10.8653 27.9454C11.0035 28.0491 11.1873 28.0618 11.3397 27.9821C11.4921 27.9055 11.5879 27.746 11.5848 27.5737V25.1763H13.25C14.9875 25.1779 16.6528 25.8797 17.8799 27.1287C18.4768 27.738 18.9528 28.4574 19.2828 29.2486C19.7038 27.1542 20.6307 25.2018 21.9817 23.5635C19.7273 21.0975 16.5632 19.697 13.2501 19.697L11.5848 19.6973Z" fill="url(#paint0_linear_68_1562)"></path><defs><linearGradient id="paint0_linear_68_1562" x1="2.16134" y1="23.9396" x2="36.4173" y2="23.9396" gradientUnits="userSpaceOnUse"><stop stop-color="#4C3AFF"></stop><stop offset="1" stop-color="#49BCFF"></stop></linearGradient></defs></svg> 