<?xml version="1.0" encoding="UTF-8"?> <svg xmlns="http://www.w3.org/2000/svg" width="43" height="43" viewBox="0 0 43 43" fill="none"><path d="M8.06138 38.3811H26.2657C28.428 38.3811 29.9945 37.6516 30.4843 35.3757L31.4979 30.6549H35.8962C37.0163 30.6549 38.0905 30.21 38.8825 29.418C39.6745 28.626 40.1194 27.5518 40.1194 26.4317V16.1347C40.1194 13.5578 38.0247 12.1833 36.0052 12.2678H25.1938V8.83088C25.1938 7.71081 24.7489 6.63662 23.9569 5.84462C23.1649 5.05261 22.0907 4.60767 20.9706 4.60767H7.29353C6.17346 4.60767 5.09927 5.05261 4.30726 5.84462C3.51526 6.63662 3.07031 7.71081 3.07031 8.83088V33.39C3.07031 34.7137 3.59616 35.9832 4.53216 36.9192C5.46817 37.8552 6.73767 38.3811 8.06138 38.3811ZM25.1938 14.5714H32.6651C32.5698 14.8028 32.4931 15.0521 32.4347 15.3193L28.2315 34.8935C27.8445 36.6933 25.1938 36.4123 25.1938 34.571V14.5714ZM10.408 14.5898C10.1025 14.5898 9.80952 14.4685 9.59352 14.2525C9.37752 14.0365 9.25617 13.7435 9.25617 13.438C9.25617 13.1326 9.37752 12.8396 9.59352 12.6236C9.80952 12.4076 10.1025 12.2862 10.408 12.2862C10.7134 12.2862 11.0064 12.4076 11.2224 12.6236C11.4384 12.8396 11.5597 13.1326 11.5597 13.438C11.5597 13.7435 11.4384 14.0365 11.2224 14.2525C11.0064 14.4685 10.7134 14.5898 10.408 14.5898ZM10.4126 28.4358H18.0911C18.3966 28.4358 18.6896 28.5572 18.9056 28.7732C19.1216 28.9892 19.2429 29.2821 19.2429 29.5876C19.2429 29.8931 19.1216 30.186 18.9056 30.402C18.6896 30.618 18.3966 30.7394 18.0911 30.7394H10.4126C10.1071 30.7394 9.81413 30.618 9.59813 30.402C9.38213 30.186 9.26078 29.8931 9.26078 29.5876C9.26078 29.2821 9.38213 28.9892 9.59813 28.7732C9.81413 28.5572 10.1071 28.4358 10.4126 28.4358ZM10.4126 20.3487H18.0911C18.3966 20.3487 18.6896 20.4701 18.9056 20.6861C19.1216 20.9021 19.2429 21.1951 19.2429 21.5005C19.2429 21.806 19.1216 22.099 18.9056 22.315C18.6896 22.531 18.3966 22.6523 18.0911 22.6523H10.4126C10.1071 22.6523 9.81413 22.531 9.59813 22.315C9.38213 22.099 9.26078 21.806 9.26078 21.5005C9.26078 21.1951 9.38213 20.9021 9.59813 20.6861C9.81413 20.4701 10.1071 20.3487 10.4126 20.3487Z" fill="url(#paint0_linear_68_1560)"></path><defs><linearGradient id="paint0_linear_68_1560" x1="1.22921" y1="21.4377" x2="35.5306" y2="21.4377" gradientUnits="userSpaceOnUse"><stop stop-color="#4C3AFF"></stop><stop offset="1" stop-color="#49BCFF"></stop></linearGradient></defs></svg> 