<?xml version="1.0" encoding="UTF-8"?> <svg xmlns="http://www.w3.org/2000/svg" width="801" height="558" viewBox="0 0 801 558" fill="none"><g opacity="0.2"><path d="M122 177.996C122 162.108 108.8 149 92.8 149H29.2C13.2 149 0 162.108 0 177.996C0 193.884 13.2 206.991 29.2 206.991H92.8C109.2 207.388 122 194.281 122 177.996Z" fill="url(#paint0_linear_99_26)"></path><path d="M214 412C214 396.11 200.8 383 184.8 383H121.2C105.2 383 92 396.11 92 412C92 427.89 105.2 441 121.2 441H184.8C200.8 441 214 427.89 214 412Z" fill="url(#paint1_linear_99_26)"></path><path d="M766.559 131.294L559.112 9.60689C537.086 -3.2023 510.254 -3.2023 488.228 9.60689L250.344 148.907H202.287C186.268 148.907 173.052 162.116 173.052 178.128C173.052 194.139 186.268 207.349 202.287 207.349H383.703H393.715C408.933 207.349 423.751 219.758 424.552 234.968C425.353 251.78 412.137 265.791 395.317 265.791H358.473H245.939H158.235C142.216 265.791 129 279 129 295.011C129 311.023 142.216 324.232 158.235 324.232H358.473H538.688C553.906 324.232 568.723 336.641 569.524 351.852C570.325 368.664 557.11 382.674 540.29 382.674H294.397C278.378 382.674 265.162 395.884 265.162 411.895C265.162 427.907 278.378 441.116 294.397 441.116H432.962C448.18 441.116 462.998 453.525 463.799 468.736C464.6 485.548 451.384 499.558 434.564 499.558H432.161H245.939H190.273C174.254 499.558 161.038 512.768 161.038 528.779C161.038 544.791 174.254 558 190.273 558H245.939H432.161H730.917C769.763 558 801 526.778 801 487.95V191.737C801 166.92 787.784 143.703 766.559 131.294Z" fill="url(#paint2_linear_99_26)"></path></g><defs><linearGradient id="paint0_linear_99_26" x1="95.7716" y1="178.151" x2="717.514" y2="178.151" gradientUnits="userSpaceOnUse"><stop stop-color="#4C3AFF"></stop><stop offset="1" stop-color="#49BCFF"></stop></linearGradient><linearGradient id="paint1_linear_99_26" x1="95.7716" y1="411.873" x2="717.514" y2="411.873" gradientUnits="userSpaceOnUse"><stop stop-color="#4C3AFF"></stop><stop offset="1" stop-color="#49BCFF"></stop></linearGradient><linearGradient id="paint2_linear_99_26" x1="95.9322" y1="279.4" x2="718.415" y2="279.4" gradientUnits="userSpaceOnUse"><stop stop-color="#4C3AFF"></stop><stop offset="1" stop-color="#49BCFF"></stop></linearGradient></defs></svg> 