<?xml version="1.0" encoding="UTF-8"?> <svg xmlns="http://www.w3.org/2000/svg" width="30" height="30" viewBox="0 0 30 30" fill="none"><path d="M16.2838 2.49951C17.69 2.50326 18.4038 2.51076 19.02 2.52826L19.2625 2.53701C19.5425 2.54701 19.8188 2.55951 20.1525 2.57451C21.4825 2.63701 22.39 2.84701 23.1863 3.15576C24.0113 3.47326 24.7063 3.90326 25.4013 4.59701C26.0371 5.22168 26.529 5.9776 26.8425 6.81201C27.1513 7.60826 27.3613 8.51576 27.4238 9.84701C27.4388 10.1795 27.4513 10.4558 27.4613 10.737L27.4688 10.9795C27.4875 11.5945 27.495 12.3083 27.4975 13.7145L27.4988 14.647V16.2845C27.5018 17.1963 27.4922 18.108 27.47 19.0195L27.4625 19.262C27.4525 19.5433 27.44 19.8195 27.425 20.152C27.3625 21.4833 27.15 22.3895 26.8425 23.187C26.529 24.0214 26.0371 24.7773 25.4013 25.402C24.7766 26.0379 24.0207 26.5297 23.1863 26.8433C22.39 27.152 21.4825 27.362 20.1525 27.4245L19.2625 27.462L19.02 27.4695C18.4038 27.487 17.69 27.4958 16.2838 27.4983L15.3513 27.4995H13.715C12.8028 27.5027 11.8907 27.4931 10.9788 27.4708L10.7363 27.4633C10.4395 27.452 10.1428 27.4391 9.84626 27.4245C8.51626 27.362 7.60876 27.152 6.81126 26.8433C5.9773 26.5296 5.22181 26.0377 4.59751 25.402C3.96119 24.7775 3.46889 24.0215 3.15501 23.187C2.84626 22.3908 2.63626 21.4833 2.57376 20.152L2.53626 19.262L2.53001 19.0195C2.50697 18.108 2.49655 17.1963 2.49876 16.2845V13.7145C2.4953 12.8028 2.50447 11.891 2.52626 10.9795L2.53501 10.737C2.54501 10.4558 2.55751 10.1795 2.57251 9.84701C2.63501 8.51576 2.84501 7.60951 3.15376 6.81201C3.46838 5.97726 3.96154 5.22131 4.59876 4.59701C5.2227 3.96145 5.97774 3.4696 6.81126 3.15576C7.60876 2.84701 8.51501 2.63701 9.84626 2.57451C10.1788 2.55951 10.4563 2.54701 10.7363 2.53701L10.9788 2.52951C11.8902 2.5073 12.802 2.49772 13.7138 2.50076L16.2838 2.49951ZM14.9988 8.74951C13.3412 8.74951 11.7514 9.40799 10.5793 10.5801C9.40724 11.7522 8.74876 13.3419 8.74876 14.9995C8.74876 16.6571 9.40724 18.2468 10.5793 19.4189C11.7514 20.591 13.3412 21.2495 14.9988 21.2495C16.6564 21.2495 18.2461 20.591 19.4182 19.4189C20.5903 18.2468 21.2488 16.6571 21.2488 14.9995C21.2488 13.3419 20.5903 11.7522 19.4182 10.5801C18.2461 9.40799 16.6564 8.74951 14.9988 8.74951ZM14.9988 11.2495C15.4912 11.2494 15.9789 11.3463 16.4339 11.5347C16.8889 11.7231 17.3023 11.9993 17.6506 12.3474C17.9989 12.6956 18.2752 13.1089 18.4637 13.5639C18.6522 14.0188 18.7493 14.5064 18.7494 14.9989C18.7495 15.4913 18.6525 15.979 18.4642 16.434C18.2758 16.889 17.9996 17.3024 17.6515 17.6507C17.3033 17.999 16.89 18.2753 16.435 18.4638C15.9801 18.6524 15.4925 18.7494 15 18.7495C14.0054 18.7495 13.0516 18.3544 12.3484 17.6512C11.6451 16.9479 11.25 15.9941 11.25 14.9995C11.25 14.0049 11.6451 13.0511 12.3484 12.3479C13.0516 11.6446 14.0054 11.2495 15 11.2495M21.5625 6.87451C21.1481 6.87451 20.7507 7.03913 20.4577 7.33216C20.1646 7.62518 20 8.02261 20 8.43701C20 8.85141 20.1646 9.24884 20.4577 9.54187C20.7507 9.83489 21.1481 9.99951 21.5625 9.99951C21.9769 9.99951 22.3743 9.83489 22.6674 9.54187C22.9604 9.24884 23.125 8.85141 23.125 8.43701C23.125 8.02261 22.9604 7.62518 22.6674 7.33216C22.3743 7.03913 21.9769 6.87451 21.5625 6.87451Z" fill="url(#paint0_linear_68_1705)"></path><defs><linearGradient id="paint0_linear_68_1705" x1="1.25564" y1="14.9579" x2="24.4027" y2="14.9579" gradientUnits="userSpaceOnUse"><stop stop-color="#4C3AFF"></stop><stop offset="1" stop-color="#49BCFF"></stop></linearGradient></defs></svg> 