<?xml version="1.0" encoding="UTF-8"?> <svg xmlns="http://www.w3.org/2000/svg" width="243" height="36" viewBox="0 0 243 36" fill="none"><g clip-path="url(#clip0_70_1772)"><g clip-path="url(#clip1_70_1772)"><path d="M134.302 12.0586C132.187 12.0586 130.473 12.7444 129.158 14.1159C127.844 15.4875 127.158 17.202 127.158 19.2594C127.158 21.3168 127.844 23.0313 129.216 24.4029C130.587 25.7745 132.359 26.4603 134.473 26.4603C135.788 26.4603 136.988 26.1745 138.017 25.603C139.045 25.0315 139.903 24.2314 140.531 23.2599L137.959 21.774C137.274 22.9741 136.188 23.5456 134.53 23.5456C133.33 23.5456 132.359 23.2027 131.559 22.5741C130.987 22.0597 130.587 21.4882 130.359 20.7453H141.103L141.16 20.1738C141.217 19.7166 141.217 19.4309 141.217 19.3737C141.217 17.4306 140.588 15.7161 139.331 14.3445C138.017 12.8015 136.359 12.0586 134.302 12.0586ZM130.244 17.8307C130.473 17.0877 130.873 16.4591 131.444 15.9447C132.187 15.2589 133.159 14.9732 134.302 14.9732C135.273 14.9732 136.131 15.2589 136.874 15.8876C137.445 16.3448 137.788 17.0306 138.017 17.8307H130.244Z" fill="#27272C"></path><path d="M179.564 12.0586C177.449 12.0586 175.735 12.7444 174.42 14.1159C173.106 15.4875 172.42 17.202 172.42 19.2594C172.42 21.3168 173.106 23.0313 174.477 24.4029C175.849 25.7745 177.621 26.4603 179.735 26.4603C181.05 26.4603 182.25 26.1745 183.278 25.603C184.307 25.0315 185.164 24.2314 185.793 23.2599L183.221 21.774C182.535 22.9741 181.45 23.5456 179.792 23.5456C178.592 23.5456 177.621 23.2027 176.82 22.5741C176.249 22.0597 175.849 21.4882 175.62 20.7453H186.307L186.364 20.1738C186.422 19.7166 186.422 19.4309 186.422 19.3737C186.422 17.4306 185.793 15.7161 184.536 14.3445C183.278 12.8015 181.621 12.0586 179.564 12.0586ZM175.506 17.8307C175.735 17.0877 176.135 16.4591 176.706 15.9447C177.449 15.2589 178.421 14.9732 179.564 14.9732C180.535 14.9732 181.392 15.2589 182.135 15.8876C182.707 16.3448 183.05 17.0306 183.278 17.8307H175.506Z" fill="#27272C"></path><path d="M197.281 20.0024C197.11 19.7166 196.824 19.4309 196.424 19.2023C196.081 18.9737 195.853 18.8022 195.681 18.7451C195.453 18.6308 195.11 18.5165 194.653 18.345C194.195 18.1736 193.91 18.1164 193.738 18.0593C193.567 18.0021 193.281 17.945 192.767 17.8307C191.395 17.4878 190.652 16.9734 190.652 16.3448C190.652 15.9447 190.824 15.659 191.109 15.4304C191.509 15.1446 192.024 15.0303 192.595 15.0303C194.252 15.0303 194.767 15.7733 194.995 16.3448L197.567 15.0303C197.167 14.1159 196.481 13.373 195.567 12.8587C194.71 12.3443 193.681 12.1157 192.595 12.1157C191.224 12.1157 190.081 12.5158 189.109 13.3159C188.137 14.1159 187.68 15.1446 187.68 16.3448C187.68 16.802 187.737 17.202 187.909 17.6021C188.023 18.0021 188.195 18.2879 188.366 18.5165C188.538 18.8022 188.823 19.088 189.223 19.3166C189.566 19.5452 189.795 19.7166 190.023 19.7738C190.252 19.8881 190.595 20.0595 191.052 20.1738C191.509 20.3453 191.795 20.4024 191.966 20.4596C192.138 20.5167 192.424 20.5739 192.938 20.6882C194.31 21.031 195.053 21.5454 195.053 22.174C195.053 22.6312 194.881 22.917 194.538 23.1456C194.138 23.4313 193.51 23.5456 192.824 23.5456C192.081 23.5456 191.509 23.3742 190.995 23.0884C190.538 22.8027 190.195 22.4026 190.023 21.8883L187.395 23.1456C187.795 24.1171 188.48 24.9172 189.452 25.5459C190.423 26.1174 191.509 26.4031 192.824 26.4031C194.31 26.4031 195.567 26.0031 196.481 25.2601C197.51 24.46 198.024 23.4313 198.024 22.174C198.024 21.7168 197.967 21.3168 197.796 20.9167C197.624 20.5739 197.453 20.2881 197.281 20.0024Z" fill="#27272C"></path><path d="M209.452 22.917C209.052 23.317 208.881 23.7742 208.881 24.3457C208.881 24.9172 209.109 25.3744 209.452 25.7745C209.852 26.1745 210.31 26.346 210.881 26.346C211.453 26.346 211.91 26.1174 212.31 25.7745C212.71 25.3744 212.881 24.9172 212.881 24.3457C212.881 23.7742 212.653 23.317 212.31 22.917C211.567 22.174 210.252 22.174 209.452 22.917Z" fill="#27272C"></path><path d="M241.114 14.2874C239.856 12.8015 238.199 12.1157 236.142 12.1157C234.027 12.1157 232.313 12.8015 230.998 14.1731C229.684 15.5447 228.998 17.2592 228.998 19.3166C228.998 21.3739 229.684 23.0884 231.055 24.46C232.427 25.8316 234.199 26.5174 236.313 26.5174C237.628 26.5174 238.828 26.2317 239.856 25.6602C240.885 25.0887 241.742 24.2886 242.371 23.317L239.799 21.8311C239.114 23.0313 238.028 23.6028 236.37 23.6028C235.17 23.6028 234.199 23.2599 233.399 22.6312C232.827 22.1169 232.427 21.5454 232.198 20.8025H242.885L242.943 20.231C243 19.7738 243 19.488 243 19.4309C243 17.3735 242.371 15.659 241.114 14.2874ZM232.141 17.8307C232.37 17.0877 232.77 16.4591 233.341 15.9447C234.084 15.2589 234.999 14.9732 236.199 14.9732C237.17 14.9732 238.028 15.2589 238.771 15.8876C239.342 16.3448 239.685 17.0306 239.914 17.8307H232.141Z" fill="url(#paint0_linear_70_1772)"></path><path d="M72.2946 12.0586C68.3513 12.0586 65.1509 15.2018 65.0938 19.1451V31.1465H68.0084V24.9744C69.2085 25.8888 70.6944 26.4031 72.2946 26.4031C76.2379 26.4031 79.4954 23.2027 79.4954 19.2023C79.4954 15.2589 76.2951 12.0586 72.2946 12.0586ZM72.2946 23.5456C69.8943 23.5456 68.0084 21.6025 68.0084 19.2594C68.0084 16.9163 69.9515 14.9732 72.2946 14.9732C74.6949 14.9732 76.5808 16.9163 76.5808 19.2594C76.5808 21.6025 74.6949 23.5456 72.2946 23.5456Z" fill="#27272C"></path><path d="M95.3825 12.0586C91.4392 12.0586 88.1816 15.2589 88.1816 19.2594C88.1816 23.2027 91.382 26.4603 95.3825 26.4603C99.3258 26.4603 102.583 23.2599 102.583 19.2594C102.583 15.2589 99.3258 12.0586 95.3825 12.0586ZM95.3825 23.5456C92.9822 23.5456 91.0963 21.6025 91.0963 19.2594C91.0963 16.9163 93.0393 14.9732 95.3825 14.9732C97.7828 14.9732 99.6687 16.9163 99.6687 19.2594C99.6687 21.6025 97.7828 23.5456 95.3825 23.5456Z" fill="#27272C"></path><path d="M111.271 12.0586C107.328 12.0586 104.127 15.2018 104.07 19.1451V31.1465H106.985V24.9744C108.185 25.8888 109.671 26.4031 111.271 26.4031C115.214 26.4031 118.472 23.2027 118.472 19.2023C118.472 15.2589 115.214 12.0586 111.271 12.0586ZM111.271 23.5456C108.871 23.5456 106.985 21.6025 106.985 19.2594C106.985 16.9163 108.928 14.9732 111.271 14.9732C113.671 14.9732 115.557 16.9163 115.557 19.2594C115.557 21.6025 113.614 23.5456 111.271 23.5456Z" fill="#27272C"></path><path d="M149.789 12.0586C145.845 12.0586 142.588 15.2589 142.588 19.2594C142.588 23.2027 145.788 26.4603 149.789 26.4603C151.389 26.4603 152.875 25.9459 154.075 25.0315V31.1465H156.99V19.1451C156.932 15.2018 153.732 12.0586 149.789 12.0586ZM149.789 23.5456C147.388 23.5456 145.503 21.6025 145.503 19.2594C145.503 16.9163 147.446 14.9732 149.789 14.9732C152.189 14.9732 154.075 16.9163 154.075 19.2594C154.075 21.6025 152.132 23.5456 149.789 23.5456Z" fill="#27272C"></path><path d="M220.312 12.0586C216.369 12.0586 213.111 15.2589 213.111 19.2594C213.111 23.2027 216.312 26.4603 220.312 26.4603C221.912 26.4603 223.398 25.9459 224.598 25.0315V26.1745H227.513V19.1451C227.456 15.2018 224.255 12.0586 220.312 12.0586ZM220.312 23.5456C217.912 23.5456 216.026 21.6025 216.026 19.2594C216.026 16.9163 217.969 14.9732 220.312 14.9732C222.712 14.9732 224.598 16.9163 224.598 19.2594C224.598 21.6025 222.712 23.5456 220.312 23.5456Z" fill="url(#paint1_linear_70_1772)"></path><path d="M168.019 20.4024C168.019 22.1169 166.647 23.5456 164.876 23.5456C163.161 23.5456 161.732 22.174 161.732 20.4024V12.3443H158.875V20.4024C158.875 23.7171 161.561 26.4031 164.876 26.4031C168.19 26.4031 170.876 23.7171 170.876 20.4024V12.3443H168.019V20.4024Z" fill="#27272C"></path><path d="M80.9805 17.3735V26.1174H83.8951V18.5736C83.8951 17.3735 84.1808 16.5162 84.7523 15.9447C85.3238 15.3732 86.1239 15.0875 87.1526 15.0875H87.7813V12.1729H87.4384C85.9525 12.1729 80.9805 12.6301 80.9805 17.3735Z" fill="#27272C"></path><path d="M119.9 17.3735V26.1174H122.815V18.5736C122.815 17.3735 123.101 16.5162 123.672 15.9447C124.244 15.3732 125.044 15.0875 126.073 15.0875H126.701V12.1729H126.301C124.93 12.1729 119.9 12.6301 119.9 17.3735Z" fill="#27272C"></path><path d="M204.938 22.4026C204.366 21.8311 204.081 20.9739 204.081 19.7738V15.2589H207.681V12.3443H204.081V8.62959L201.166 9.54399V12.4015H198.537V15.3161H201.166V20.9739C201.166 25.7173 206.195 26.1745 207.624 26.2317H208.024V23.317H207.395C206.367 23.2599 205.567 22.9741 204.938 22.4026Z" fill="#27272C"></path><path d="M7.82949 11.4299C7.82949 10.4012 6.97225 9.54399 5.94356 9.54399H1.88594C0.857244 9.54399 0 10.4012 0 11.4299C0 12.4586 0.857244 13.3159 1.88594 13.3159H5.94356C6.97225 13.3159 7.82949 12.4586 7.82949 11.4299Z" fill="url(#paint2_linear_70_1772)"></path><path d="M13.7162 26.4603C13.7162 25.4316 12.859 24.5743 11.8303 24.5743H7.77265C6.74396 24.5743 5.88672 25.4316 5.88672 26.4603C5.88672 27.489 6.74396 28.3462 7.77265 28.3462H11.8303C12.859 28.3462 13.7162 27.489 13.7162 26.4603Z" fill="url(#paint3_linear_70_1772)"></path><path d="M49.0919 8.45814L35.8332 0.62865C34.4045 -0.171444 32.69 -0.171444 31.2612 0.62865L16.0595 9.54399H12.9734C11.9447 9.54399 11.0874 10.4012 11.0874 11.4299C11.0874 12.4586 11.9447 13.3159 12.9734 13.3159H24.5747H25.2034C26.1749 13.3159 27.1465 14.116 27.2036 15.0875C27.2608 16.1733 26.4035 17.0877 25.3177 17.0877H22.9746H15.7737H10.173C9.14435 17.0877 8.28711 17.945 8.28711 18.9737C8.28711 20.0024 9.14435 20.8596 10.173 20.8596H22.9746H34.5188C35.4903 20.8596 36.4619 21.6597 36.519 22.6312C36.5762 23.7171 35.7189 24.6315 34.6331 24.6315H18.8598C17.8311 24.6315 16.9738 25.4887 16.9738 26.5174C16.9738 27.5461 17.8311 28.4033 18.8598 28.4033H27.718C28.6895 28.4033 29.6611 29.2034 29.7182 30.175C29.7754 31.2608 28.9181 32.1752 27.8323 32.1752H27.6608H15.7737H12.2304C11.2017 32.1752 10.3445 33.0325 10.3445 34.0612C10.3445 35.0898 11.2017 35.9471 12.2304 35.9471H15.7737H27.718H46.8631C49.3205 35.9471 51.3779 33.9469 51.3779 31.4323V12.2872C51.3207 10.687 50.4635 9.25824 49.0919 8.45814Z" fill="url(#paint4_linear_70_1772)"></path></g></g><defs><linearGradient id="paint0_linear_70_1772" x1="214.538" y1="19.2507" x2="242.025" y2="19.2507" gradientUnits="userSpaceOnUse"><stop stop-color="#4C3AFF"></stop><stop offset="1" stop-color="#49BCFF"></stop></linearGradient><linearGradient id="paint1_linear_70_1772" x1="214.539" y1="19.2507" x2="242.026" y2="19.2507" gradientUnits="userSpaceOnUse"><stop stop-color="#4C3AFF"></stop><stop offset="1" stop-color="#49BCFF"></stop></linearGradient><linearGradient id="paint2_linear_70_1772" x1="6.14535" y1="11.4439" x2="46.0404" y2="11.4439" gradientUnits="userSpaceOnUse"><stop stop-color="#4C3AFF"></stop><stop offset="1" stop-color="#49BCFF"></stop></linearGradient><linearGradient id="paint3_linear_70_1772" x1="6.14566" y1="26.4664" x2="46.0407" y2="26.4664" gradientUnits="userSpaceOnUse"><stop stop-color="#4C3AFF"></stop><stop offset="1" stop-color="#49BCFF"></stop></linearGradient><linearGradient id="paint4_linear_70_1772" x1="6.14577" y1="17.9276" x2="46.0408" y2="17.9276" gradientUnits="userSpaceOnUse"><stop stop-color="#4C3AFF"></stop><stop offset="1" stop-color="#49BCFF"></stop></linearGradient><clipPath id="clip0_70_1772"><rect width="243" height="36" fill="white"></rect></clipPath><clipPath id="clip1_70_1772"><rect width="243" height="35.8328" fill="white"></rect></clipPath></defs></svg> 