<?xml version="1.0" encoding="UTF-8"?> <svg xmlns="http://www.w3.org/2000/svg" width="92" height="92" viewBox="0 0 92 92" fill="none"><path d="M26.8372 61.9237C27.6754 61.9237 28.3756 61.6401 28.9378 61.0728C29.5001 60.5054 29.7812 59.8039 29.7812 58.9683C29.7812 58.1326 29.4988 57.4324 28.934 56.8676C28.3692 56.3028 27.6664 56.0217 26.8257 56.0242C25.9849 56.0268 25.2859 56.3105 24.7288 56.8752C24.1717 57.44 23.8906 58.1415 23.8855 58.9797C23.8804 59.818 24.1628 60.5182 24.7327 61.0804C25.3026 61.6426 26.0015 61.9237 26.8372 61.9237ZM26.8333 50.7151C27.3777 50.7151 27.8326 50.5311 28.198 50.1631C28.5634 49.7951 28.7462 49.3402 28.7462 48.7984V31.9931C28.7462 31.4513 28.5622 30.9964 28.1942 30.6284C27.8262 30.2604 27.37 30.0764 26.8257 30.0764C26.2813 30.0764 25.8264 30.2604 25.461 30.6284C25.0956 30.9964 24.9128 31.4513 24.9128 31.9931V48.8022C24.9128 49.344 25.0968 49.7989 25.4648 50.1669C25.8328 50.5349 26.289 50.7189 26.8333 50.7189M42.1667 55.5834H65.1667C65.711 55.5834 66.1659 55.3994 66.5313 55.0314C66.8968 54.6634 67.0808 54.2072 67.0833 53.6629C67.0859 53.1186 66.9019 52.6637 66.5313 52.2982C66.1608 51.9328 65.7059 51.7501 65.1667 51.7501H42.1667C41.6223 51.7501 41.1674 51.9341 40.802 52.3021C40.4366 52.6701 40.2526 53.1263 40.25 53.6706C40.2474 54.2149 40.4314 54.6698 40.802 55.0353C41.1726 55.4007 41.6274 55.5834 42.1667 55.5834ZM42.1667 40.2501H65.1667C65.711 40.2501 66.1659 40.0661 66.5313 39.6981C66.8968 39.3301 67.0808 38.8739 67.0833 38.3296C67.0859 37.7852 66.9019 37.3304 66.5313 36.9649C66.1608 36.5995 65.7059 36.4167 65.1667 36.4167H42.1667C41.6223 36.4167 41.1674 36.6007 40.802 36.9687C40.4366 37.3367 40.2526 37.7929 40.25 38.3373C40.2474 38.8816 40.4314 39.3365 40.802 39.7019C41.1726 40.0674 41.6274 40.2501 42.1667 40.2501ZM17.6947 72.8334C15.9288 72.8334 14.4555 72.2431 13.2748 71.0624C12.0942 69.8818 11.5026 68.4072 11.5 66.6388V25.3614C11.5 23.5955 12.0916 22.1222 13.2748 20.9416C14.4581 19.7609 15.9301 19.1693 17.6908 19.1667H74.3092C76.0725 19.1667 77.5445 19.7584 78.7252 20.9416C79.9058 22.1248 80.4974 23.5981 80.5 25.3614V66.6426C80.5 68.4059 79.9084 69.8792 78.7252 71.0624C77.5419 72.2456 76.0699 72.836 74.3092 72.8334H17.6947Z" fill="url(#paint0_linear_68_1536)"></path><defs><linearGradient id="paint0_linear_68_1536" x1="8.07114" y1="45.9101" x2="71.9539" y2="45.9101" gradientUnits="userSpaceOnUse"><stop stop-color="#4C3AFF"></stop><stop offset="1" stop-color="#49BCFF"></stop></linearGradient></defs></svg> 