<?xml version="1.0" encoding="UTF-8"?> <svg xmlns="http://www.w3.org/2000/svg" width="68" height="68" viewBox="0 0 68 68" fill="none"><path d="M53.834 42.4999C53.834 40.9888 53.3854 39.4777 52.4881 37.9666C51.5909 36.4555 50.2923 35.3694 48.5923 34.7083L26.4923 25.9249L25.5007 25.6416C25.1701 25.5472 24.7923 25.4999 24.3673 25.4999H19.834V21.3208C19.834 20.3763 20.0465 19.5027 20.4715 18.6999C20.8965 17.8972 21.4868 17.236 22.2423 16.7166L36.409 6.58743C36.9284 6.20966 37.4602 5.93766 38.0042 5.77143C38.5482 5.60521 39.1025 5.52305 39.6673 5.52493C40.2321 5.52682 40.7988 5.60993 41.3673 5.77427C41.9359 5.9386 42.4553 6.20966 42.9256 6.58743L57.0923 16.7166C57.8479 17.236 58.4381 17.8972 58.8631 18.6999C59.2881 19.5027 59.5006 20.3763 59.5006 21.3208V42.4999H53.834ZM42.5006 22.6666C42.8784 22.6666 43.209 22.5249 43.4923 22.2416C43.7757 21.9583 43.9173 21.6277 43.9173 21.2499C43.9173 20.8722 43.7757 20.5416 43.4923 20.2583C43.209 19.9749 42.8784 19.8333 42.5006 19.8333C42.1229 19.8333 41.7923 19.9749 41.509 20.2583C41.2256 20.5416 41.084 20.8722 41.084 21.2499C41.084 21.6277 41.2256 21.9583 41.509 22.2416C41.7923 22.5249 42.1229 22.6666 42.5006 22.6666ZM36.834 22.6666C37.2118 22.6666 37.5423 22.5249 37.8257 22.2416C38.109 21.9583 38.2507 21.6277 38.2507 21.2499C38.2507 20.8722 38.109 20.5416 37.8257 20.2583C37.5423 19.9749 37.2118 19.8333 36.834 19.8333C36.4562 19.8333 36.1256 19.9749 35.8423 20.2583C35.559 20.5416 35.4173 20.8722 35.4173 21.2499C35.4173 21.6277 35.559 21.9583 35.8423 22.2416C36.1256 22.5249 36.4562 22.6666 36.834 22.6666ZM42.5006 28.3333C42.8784 28.3333 43.209 28.1916 43.4923 27.9083C43.7757 27.6249 43.9173 27.2944 43.9173 26.9166C43.9173 26.5388 43.7757 26.2083 43.4923 25.9249C43.209 25.6416 42.8784 25.4999 42.5006 25.4999C42.1229 25.4999 41.7923 25.6416 41.509 25.9249C41.2256 26.2083 41.084 26.5388 41.084 26.9166C41.084 27.2944 41.2256 27.6249 41.509 27.9083C41.7923 28.1916 42.1229 28.3333 42.5006 28.3333ZM36.834 28.3333C37.2118 28.3333 37.5423 28.1916 37.8257 27.9083C38.109 27.6249 38.2507 27.2944 38.2507 26.9166C38.2507 26.5388 38.109 26.2083 37.8257 25.9249C37.5423 25.6416 37.2118 25.4999 36.834 25.4999C36.4562 25.4999 36.1256 25.6416 35.8423 25.9249C35.559 26.2083 35.4173 26.5388 35.4173 26.9166C35.4173 27.2944 35.559 27.6249 35.8423 27.9083C36.1256 28.1916 36.4562 28.3333 36.834 28.3333ZM37.8965 61.8374C38.4159 61.9791 39.0185 62.0386 39.7041 62.0159C40.3898 61.9933 40.9678 61.8865 41.4381 61.6958L62.334 53.8333C62.334 52.2277 61.7673 50.8819 60.634 49.7958C59.5006 48.7097 58.1784 48.1666 56.6673 48.1666H37.259C37.1173 48.1666 36.952 48.1553 36.7632 48.1326C36.5743 48.1099 36.4326 48.074 36.3381 48.0249L32.159 46.5374C31.7812 46.3958 31.5215 46.1597 31.3798 45.8291C31.2381 45.4985 31.2145 45.1444 31.309 44.7666C31.4034 44.436 31.6395 44.1763 32.0173 43.9874C32.3951 43.7985 32.7729 43.7749 33.1506 43.9166L36.3381 45.1208C36.527 45.2152 36.681 45.2747 36.8 45.2993C36.919 45.3238 37.0956 45.3352 37.3298 45.3333H44.7673C45.6645 45.3333 46.455 45.0263 47.1388 44.4124C47.8226 43.7985 48.1654 42.9958 48.1673 42.0041C48.1673 41.343 47.9662 40.7055 47.5638 40.0916C47.1615 39.4777 46.6307 39.0527 45.9715 38.8166L26.3507 31.5208C26.0201 31.4263 25.6895 31.3432 25.359 31.2714C25.0284 31.1997 24.6979 31.1647 24.3673 31.1666H19.834V56.7374L37.8965 61.8374ZM2.83398 56.6666C2.83398 58.2249 3.38932 59.5594 4.49998 60.6701C5.61065 61.7808 6.94421 62.3352 8.50065 62.3333C10.0571 62.3314 11.3916 61.777 12.5042 60.6701C13.6167 59.5632 14.1711 58.2287 14.1673 56.6666V36.8333C14.1673 35.2749 13.6129 33.9414 12.5042 32.8326C11.3954 31.7238 10.0609 31.1685 8.50065 31.1666C6.94043 31.1647 5.60687 31.72 4.49998 32.8326C3.3931 33.9452 2.83776 35.2787 2.83398 36.8333V56.6666Z" fill="url(#paint0_linear_68_1532)"></path><defs><linearGradient id="paint0_linear_68_1532" x1="-0.122787" y1="33.8338" x2="54.9645" y2="33.8338" gradientUnits="userSpaceOnUse"><stop stop-color="#4C3AFF"></stop><stop offset="1" stop-color="#49BCFF"></stop></linearGradient></defs></svg> 