<?xml version="1.0" encoding="UTF-8"?> <svg xmlns="http://www.w3.org/2000/svg" width="99" height="99" viewBox="0 0 99 99" fill="none"><path d="M18.9049 71.4491C14.6561 66.9364 12.375 61.875 12.375 53.6704C12.375 39.2329 22.5101 26.2928 37.2487 19.8949L40.9324 25.5791C27.1755 33.0206 24.486 42.6773 23.4135 48.7658C25.6286 47.619 28.5285 47.2189 31.3706 47.4829C38.8121 48.1718 44.6779 54.2809 44.6779 61.875C44.6779 65.7041 43.1568 69.3763 40.4492 72.0839C37.7417 74.7914 34.0694 76.3125 30.2404 76.3125C28.1228 76.2942 26.03 75.8548 24.0839 75.0199C22.1378 74.1849 20.3773 72.9711 18.9049 71.4491ZM60.1549 71.4491C55.9061 66.9364 53.625 61.875 53.625 53.6704C53.625 39.2329 63.7601 26.2928 78.4988 19.8949L82.1824 25.5791C68.4255 33.0206 65.736 42.6773 64.6635 48.7658C66.8786 47.619 69.7785 47.2189 72.6206 47.4829C80.0621 48.1718 85.9279 54.2809 85.9279 61.875C85.9279 65.7041 84.4068 69.3763 81.6992 72.0839C78.9917 74.7914 75.3194 76.3125 71.4904 76.3125C69.3728 76.2942 67.28 75.8548 65.3339 75.0199C63.3878 74.1849 61.6273 72.9711 60.1549 71.4491Z" fill="url(#paint0_linear_68_1746)"></path><defs><linearGradient id="paint0_linear_68_1746" x1="8.71989" y1="48.0091" x2="76.8179" y2="48.0091" gradientUnits="userSpaceOnUse"><stop stop-color="#4C3AFF"></stop><stop offset="1" stop-color="#49BCFF"></stop></linearGradient></defs></svg> 