<?xml version="1.0" encoding="UTF-8"?> <svg xmlns="http://www.w3.org/2000/svg" width="954" height="1040" viewBox="0 0 954 1040" fill="none"><g opacity="0.2"><path fill-rule="evenodd" clip-rule="evenodd" d="M476.67 343.521H366.309V791.483H352.158C347.892 791.483 344.405 794.936 344.405 799.202C344.405 803.468 347.858 806.955 352.158 806.955H443.669V724.215H509.719V806.921H601.23C605.496 806.921 608.983 803.468 608.983 799.168C608.983 794.903 605.53 791.449 601.23 791.449H587.045V343.521L476.67 343.521ZM425.347 328.049H527.995V291.69H484.425V240.841C484.425 236.575 480.972 233.122 476.672 233.122C472.407 233.122 468.92 236.575 468.92 240.841V291.69H425.35L425.347 328.049ZM602.502 428.322H710.324V743.642H724.069C728.334 743.642 731.821 747.095 731.821 751.36C731.821 755.626 728.368 759.113 724.069 759.113H602.501L602.502 428.322ZM682.568 549.084H636.052V595.599H682.568V549.084ZM682.568 636.6H636.052V683.115H682.568V636.6ZM636.052 461.576V508.092H682.568V461.576H636.052ZM500.566 374.06H547.082V420.576H500.566V374.06ZM500.566 461.576H547.082V508.092H500.566V461.576ZM547.048 549.092V595.608H500.532V549.092H547.048ZM547.048 636.608V683.124H500.532L500.566 636.608H547.048ZM350.791 428.34V759.129H229.258C224.993 759.129 221.506 755.676 221.506 751.376C221.506 747.111 224.959 743.658 229.258 743.658H243.003L242.969 428.338L350.791 428.34ZM270.76 549.101V595.617H317.275V549.101H270.76ZM270.76 636.617V683.133H317.275V636.617H270.76ZM317.275 461.594H270.76V508.109H317.275V461.594ZM452.761 374.078V420.593H406.246V374.078H452.761ZM452.761 461.594V508.109H406.246V461.594H452.761ZM406.279 549.11H452.795V595.625H406.279V549.11ZM406.279 636.626H452.795V683.141H406.279V636.626Z" fill="url(#paint0_linear_86_11)"></path></g><defs><linearGradient id="paint0_linear_86_11" x1="196.146" y1="519.076" x2="668.615" y2="519.076" gradientUnits="userSpaceOnUse"><stop stop-color="#4C3AFF"></stop><stop offset="1" stop-color="#49BCFF"></stop></linearGradient></defs></svg> 