<?xml version="1.0" encoding="UTF-8"?> <svg xmlns="http://www.w3.org/2000/svg" width="56" height="56" viewBox="0 0 56 56" fill="none"><path fill-rule="evenodd" clip-rule="evenodd" d="M28.001 0.168213C28.7966 0.168213 29.5597 0.484283 30.1223 1.04689C30.6849 1.6095 31.001 2.37256 31.001 3.16821V12.8002H35.681C36.077 12.7995 36.4644 12.9164 36.794 13.1361C37.1235 13.3558 37.3804 13.6685 37.5321 14.0344C37.6838 14.4003 37.7234 14.8029 37.6459 15.1914C37.5685 15.5798 37.3774 15.9365 37.097 16.2162L29.417 23.8962C29.2312 24.0825 29.0105 24.2302 28.7675 24.3311C28.5245 24.4319 28.264 24.4838 28.001 24.4838C27.7379 24.4838 27.4774 24.4319 27.2344 24.3311C26.9915 24.2302 26.7707 24.0825 26.585 23.8962L18.905 16.2162C18.6248 15.9367 18.4338 15.5804 18.3562 15.1924C18.2786 14.8043 18.3179 14.4019 18.4691 14.0362C18.6202 13.6705 18.8765 13.3578 19.2055 13.1378C19.5344 12.9178 19.9212 12.8003 20.317 12.8002H25.001V3.16821C25.001 2.37256 25.317 1.6095 25.8796 1.04689C26.4423 0.484283 27.2053 0.168213 28.001 0.168213ZM8.34497 16.6882H13.577C13.897 17.8202 14.497 18.8802 15.369 19.7522L23.049 27.4322C23.699 28.0823 24.4707 28.598 25.32 28.9498C26.1693 29.3016 27.0797 29.4827 27.999 29.4827C28.9183 29.4827 29.8286 29.3016 30.6779 28.9498C31.5272 28.598 32.2989 28.0823 32.949 27.4322L40.633 19.7522C41.505 18.8802 42.109 17.8202 42.425 16.6842H47.657C51.277 16.6842 54.213 19.6202 54.213 23.2362V23.8202L28.001 39.0922L1.79297 23.8202V23.2362C1.79297 19.6202 4.72497 16.6882 8.34497 16.6882ZM1.79297 29.6042V49.4442C1.79297 53.0642 4.72497 55.9962 8.34497 55.9962H47.657C51.277 55.9962 54.213 53.0642 54.213 49.4442V29.6042L29.261 44.1442C28.8779 44.3654 28.4433 44.4818 28.001 44.4818C27.5586 44.4818 27.1241 44.3654 26.741 44.1442L1.79297 29.6042Z" fill="url(#paint0_linear_68_1534)"></path><defs><linearGradient id="paint0_linear_68_1534" x1="-0.811972" y1="27.9886" x2="47.7204" y2="27.9886" gradientUnits="userSpaceOnUse"><stop stop-color="#4C3AFF"></stop><stop offset="1" stop-color="#49BCFF"></stop></linearGradient></defs></svg> 