<?xml version="1.0" encoding="UTF-8"?> <svg xmlns="http://www.w3.org/2000/svg" width="30" height="30" viewBox="0 0 30 30" fill="none"><path d="M15 2.5C12.5277 2.5 10.111 3.23311 8.05538 4.60663C5.99976 5.98015 4.39761 7.93238 3.45151 10.2165C2.50542 12.5005 2.25787 15.0139 2.74019 17.4386C3.2225 19.8634 4.41301 22.0907 6.16117 23.8388C7.90933 25.587 10.1366 26.7775 12.5614 27.2598C14.9861 27.7421 17.4995 27.4946 19.7836 26.5485C22.0676 25.6024 24.0199 24.0002 25.3934 21.9446C26.7669 19.889 27.5 17.4723 27.5 15C27.4967 11.6858 26.1787 8.50831 23.8352 6.16482C21.4917 3.82133 18.3142 2.50331 15 2.5ZM22.4238 12.1412V12.9487C22.4238 13.0106 22.4114 13.0717 22.3874 13.1287C22.3634 13.1856 22.3282 13.2372 22.2839 13.2803C22.2396 13.3234 22.1872 13.3572 22.1296 13.3797C22.072 13.4022 22.0105 13.4129 21.9488 13.4112C20.629 13.318 19.3663 12.8361 18.32 12.0262V17.9362C18.3197 18.5903 18.1891 19.2378 17.9359 19.8409C17.6826 20.444 17.3118 20.9906 16.845 21.4487C16.3744 21.9189 15.8147 22.2905 15.1987 22.5416C14.5826 22.7927 13.9227 22.9184 13.2575 22.9112C11.9198 22.9093 10.6359 22.3844 9.68001 21.4487C9.07174 20.8355 8.63362 20.0745 8.40875 19.2405C8.18388 18.4065 8.18 17.5284 8.39751 16.6925C8.59626 15.89 8.99751 15.1525 9.56376 14.5512C9.98604 14.0351 10.5183 13.6199 11.1217 13.3359C11.7251 13.0519 12.3844 12.9064 13.0513 12.91H14.0763V15.0387C14.0767 15.1006 14.064 15.1618 14.0389 15.2183C14.0138 15.2748 13.977 15.3253 13.9309 15.3665C13.8848 15.4077 13.8304 15.4385 13.7714 15.457C13.7124 15.4755 13.6501 15.4812 13.5888 15.4737C12.9936 15.295 12.3523 15.3543 11.8001 15.6391C11.2478 15.924 10.8277 16.4121 10.6283 17.0007C10.4289 17.5892 10.4659 18.2322 10.7313 18.7941C10.9968 19.3559 11.47 19.7928 12.0513 20.0125C12.3888 20.2062 12.7663 20.32 13.1538 20.3462C13.4538 20.3587 13.7538 20.3212 14.0388 20.2312C14.5145 20.0707 14.9284 19.7658 15.2226 19.3589C15.5168 18.9519 15.6767 18.4634 15.68 17.9612V7.1925C15.68 7.07337 15.7272 6.9591 15.8114 6.87474C15.8955 6.79039 16.0096 6.74283 16.1288 6.7425H17.8975C18.0124 6.74264 18.1229 6.78675 18.2064 6.86577C18.2898 6.9448 18.3399 7.05275 18.3463 7.1675C18.4107 7.71904 18.5859 8.25188 18.8613 8.73408C19.1366 9.21629 19.5065 9.63794 19.9488 9.97375C20.5464 10.4224 21.2562 10.6974 22 10.7687C22.1114 10.7783 22.2156 10.8278 22.2933 10.9083C22.371 10.9887 22.4169 11.0946 22.4225 11.2062L22.4238 12.1412Z" fill="url(#paint0_linear_68_1707)"></path><defs><linearGradient id="paint0_linear_68_1707" x1="1.25766" y1="14.9581" x2="24.4036" y2="14.9581" gradientUnits="userSpaceOnUse"><stop stop-color="#4C3AFF"></stop><stop offset="1" stop-color="#49BCFF"></stop></linearGradient></defs></svg> 