<?xml version="1.0" encoding="UTF-8"?> <svg xmlns="http://www.w3.org/2000/svg" width="36" height="41" viewBox="0 0 36 41" fill="none"><path fill-rule="evenodd" clip-rule="evenodd" d="M19.5485 13.3675L22.8591 11.4628H22.8575C22.972 11.8393 23.1334 12.2019 23.3356 12.5393L20.1191 14.3862C20.6098 15.7581 20.2226 17.2893 19.1379 18.2659V16.6659C19.1347 15.2878 18.0139 14.1721 16.6298 14.1721C15.2473 14.1721 14.125 15.2878 14.1218 16.6659V18.0159C12.8349 16.605 12.8851 14.4347 14.2363 13.0831C14.8335 12.4831 15.6298 12.119 16.4746 12.0581C16.4339 12.0612 16.3931 12.0581 16.3508 12.0628V8.28777C16.7427 8.32371 17.1361 8.30809 17.5233 8.24246V12.1316C17.4622 12.1175 17.3995 12.1066 17.3368 12.0956C18.304 12.2519 19.1661 12.7972 19.7194 13.6034C19.6645 13.5222 19.6081 13.444 19.5485 13.3675ZM13.7817 13.6284L7.99119 10.3049C7.85011 10.669 7.66358 11.0112 7.43316 11.3268L13.3019 14.705H13.3035C13.4022 14.3221 13.5637 13.9581 13.78 13.6284H13.7817ZM14.9746 6.65478C16.2286 7.3751 17.793 7.27198 18.9404 6.3954C20.0878 5.51728 20.5925 4.0376 20.2195 2.64384C19.8448 1.25163 18.6661 0.22039 17.2334 0.0313497C15.7991 -0.159275 14.3915 0.531351 13.6673 1.77823C13.1908 2.59856 13.0622 3.572 13.3068 4.4876C13.5529 5.40168 14.1532 6.18134 14.9746 6.65478ZM28.3518 6.67665C26.4457 6.17353 24.4894 7.29698 23.9722 9.19386C23.5975 10.5861 24.1007 12.0657 25.2481 12.9439C26.394 13.822 27.9583 13.9251 29.2108 13.2048C30.4632 12.4845 31.1576 11.0845 30.9695 9.6548C30.7814 8.22667 29.7484 7.0501 28.3518 6.67665ZM4.48783 5.12353C3.09116 4.75478 1.60987 5.26103 0.733626 6.40477C-0.142615 7.54854 -0.242936 9.10634 0.481255 10.3517C1.20545 11.597 2.60994 12.286 4.04108 12.097C5.47378 11.9095 6.64941 10.8798 7.02405 9.48918C7.27172 8.5751 7.14475 7.6001 6.66823 6.77981C6.1917 5.95953 5.4064 5.36413 4.48783 5.12353ZM26.635 23.8328C26.2651 23.4671 25.7431 23.3 25.2305 23.3828C24.7164 23.4656 24.2744 23.789 24.0408 24.2515H23.9844C23.7085 23.7093 23.1489 23.3672 22.5391 23.3672C21.9293 23.3672 21.3713 23.7094 21.0954 24.2515H21.0265C20.7694 23.7437 20.2631 23.4078 19.6941 23.3687C19.1235 23.3297 18.5764 23.5906 18.2504 24.0594V16.6658C18.2488 15.7751 17.5246 15.0533 16.6296 15.0533C15.7361 15.0533 15.0103 15.7752 15.0087 16.6658V25.783L14.3833 25.1595C13.8488 24.6361 13.0243 24.5439 12.3863 24.9361C11.7483 25.3283 11.4599 26.1033 11.6872 26.8142L11.5727 26.9392L12.0728 27.4501L13.3017 29.1736C13.8707 32.4392 16.8286 36 20.3085 36C22.2648 36 24.1191 35.4781 25.3811 33.9141C27.2464 31.5891 27.1101 27.8705 27.1101 24.9797L27.1116 24.9781C27.1116 24.5469 26.9407 24.1359 26.635 23.8328Z" fill="url(#paint0_linear_68_1540)"></path><defs><linearGradient id="paint0_linear_68_1540" x1="-1.5405" y1="17.9396" x2="27.1604" y2="17.9396" gradientUnits="userSpaceOnUse"><stop stop-color="#4C3AFF"></stop><stop offset="1" stop-color="#49BCFF"></stop></linearGradient></defs></svg> 