<?xml version="1.0" encoding="UTF-8"?> <svg xmlns="http://www.w3.org/2000/svg" width="35" height="35" viewBox="0 0 35 35" fill="none"><path fill-rule="evenodd" clip-rule="evenodd" d="M17.4993 5.8335C18.7462 5.8335 20.0252 5.86558 21.2648 5.91808L22.7289 5.98808L24.1304 6.0712L25.4429 6.16016L26.6416 6.2535C27.9427 6.3525 29.1672 6.90746 30.0993 7.82062C31.0314 8.73378 31.6114 9.94657 31.7371 11.2454L31.7954 11.8652L31.9048 13.1922C32.0068 14.5675 32.0827 16.0666 32.0827 17.5002C32.0827 18.9337 32.0068 20.4329 31.9048 21.8081L31.7954 23.1352L31.7371 23.755C31.6113 25.054 31.0311 26.267 30.0987 27.1801C29.1663 28.0933 27.9415 28.6482 26.6402 28.7468L25.4443 28.8387L24.1318 28.9291L22.7289 29.0122L21.2648 29.0822C20.0103 29.1366 18.7549 29.1648 17.4993 29.1668C16.2438 29.1648 14.9883 29.1366 13.7339 29.0822L12.2698 29.0122L10.8683 28.9291L9.55581 28.8387L8.35706 28.7468C7.05595 28.6478 5.83151 28.0929 4.89941 27.1797C3.96731 26.2665 3.38734 25.0538 3.26164 23.755L3.20331 23.1352L3.09393 21.8081C2.98286 20.3747 2.92351 18.9378 2.91602 17.5002C2.91602 16.0666 2.99185 14.5675 3.09393 13.1922L3.20331 11.8652L3.26164 11.2454C3.38729 9.9468 3.96705 8.7342 4.89886 7.82107C5.83066 6.90794 7.05475 6.35283 8.3556 6.2535L9.55289 6.16016L10.8654 6.0712L12.2683 5.98808L13.7325 5.91808C14.9874 5.86372 16.2433 5.83552 17.4993 5.8335ZM14.5827 13.9637V21.0366C14.5827 21.7104 15.3118 22.1304 15.8952 21.795L22.0202 18.2585C22.1535 18.1818 22.2642 18.0713 22.3411 17.9382C22.4181 17.805 22.4587 17.6539 22.4587 17.5002C22.4587 17.3464 22.4181 17.1953 22.3411 17.0622C22.2642 16.929 22.1535 16.8186 22.0202 16.7418L15.8952 13.2068C15.7621 13.13 15.6112 13.0896 15.4575 13.0896C15.3039 13.0896 15.153 13.1301 15.0199 13.207C14.8869 13.2838 14.7765 13.3944 14.6997 13.5275C14.6229 13.6606 14.5826 13.8115 14.5827 13.9652V13.9637Z" fill="url(#paint0_linear_103_33)"></path><defs><linearGradient id="paint0_linear_103_33" x1="1.46662" y1="17.461" x2="28.4702" y2="17.461" gradientUnits="userSpaceOnUse"><stop stop-color="#4C3AFF"></stop><stop offset="1" stop-color="#49BCFF"></stop></linearGradient></defs></svg> 